<svg xmlns="http://www.w3.org/2000/svg" viewBox="0 0 332.89 127.05"><defs><style>.cls-1{fill:#fff;}</style></defs><g id="Capa_2" data-name="Capa 2"><g id="Capa_1-2" data-name="Capa 1"><path class="cls-1" d="M88.42,12.23H76.18a20.6,20.6,0,0,0-37.64,0H26.31A26.34,26.34,0,0,0,0,38.54v62.11A26.35,26.35,0,0,0,26.19,127h0c1.08.16,6,.6,11.51-3.85,8-6.44,17.45-23.56,17.66-68.46h4c.21,44.9,9.69,62,17.66,68.46a16.1,16.1,0,0,0,10.11,3.94,9.57,9.57,0,0,0,1.4-.09h0a26.35,26.35,0,0,0,26.19-26.31V38.54A26.34,26.34,0,0,0,88.42,12.23ZM57.37,3.1A17.5,17.5,0,1,1,39.86,20.6,17.53,17.53,0,0,1,57.37,3.1ZM35.9,120.59A14.1,14.1,0,0,1,29,123.86h-2.7A23.24,23.24,0,0,1,3.1,100.65V38.54A23.23,23.23,0,0,1,26.31,15.33H37.45a20.51,20.51,0,0,0,0,10.55H32.88A19.24,19.24,0,0,0,13.65,45.11v49a19.26,19.26,0,0,0,19.23,19.24h9A26.78,26.78,0,0,1,35.9,120.59Zm7.59-10.37H32.88A16.16,16.16,0,0,1,16.74,94.08V87.63H49.93C48.33,97.64,46,104.93,43.49,110.22ZM50.4,84.53H31l2.71-7.89H51.29Q50.92,80.83,50.4,84.53Zm1.74-22H48.3l1-7.9h3C52.26,57.39,52.22,60,52.14,62.55ZM52,65.65q-.18,4.14-.46,7.89H40.25l1.82-7.89ZM48,51.56a1.54,1.54,0,0,0-1.53,1.34l-1.26,9.65H40.83a1.55,1.55,0,0,0-1.51,1.2l-2.24,9.79H32.61a1.56,1.56,0,0,0-1.47,1l-3.41,9.94h-11V45.11A16.16,16.16,0,0,1,32.88,29h5.66a20.6,20.6,0,0,0,37.64,0h5.67A16.16,16.16,0,0,1,98,45.11V84.53H87l-3.42-9.94a1.54,1.54,0,0,0-1.46-1H77.65L75.4,63.75a1.55,1.55,0,0,0-1.51-1.2H69.55L68.3,52.9a1.55,1.55,0,0,0-1.54-1.34Zm14.49,3.09h3l1,7.9H62.59Q62.47,58.76,62.45,54.65Zm.25,11h10l1.81,7.89H63.17Q62.88,69.79,62.7,65.65Zm.73,11H81l2.71,7.89H64.33Q63.82,80.83,63.43,76.64Zm1.36,11H98v6.45a16.16,16.16,0,0,1-16.14,16.14H71.23C68.69,104.93,66.4,97.64,64.79,87.63Zm46.84,13a23.24,23.24,0,0,1-23.21,23.21H85.71a14,14,0,0,1-6.88-3.27,26.79,26.79,0,0,1-6-7.27h9a19.26,19.26,0,0,0,19.23-19.24v-49A19.24,19.24,0,0,0,81.85,25.88H77.28a20.8,20.8,0,0,0,0-10.55H88.42a23.23,23.23,0,0,1,23.21,23.21Z"/><path class="cls-1" d="M57.36,31.39A10.79,10.79,0,1,1,68.15,20.6,10.8,10.8,0,0,1,57.36,31.39Zm0-18.48a7.69,7.69,0,1,0,7.69,7.69A7.7,7.7,0,0,0,57.36,12.91Z"/><path class="cls-1" d="M142.6,66.09a18.44,18.44,0,0,1-5.26-.71,13.42,13.42,0,0,1-4.22-2.08,16.54,16.54,0,0,1-3.3-3.33L134,55.22a12.76,12.76,0,0,0,4.33,4.1A10.14,10.14,0,0,0,143,60.41a7,7,0,0,0,2.46-.4,4.14,4.14,0,0,0,1.71-1.09,2.39,2.39,0,0,0,.62-1.66,2.78,2.78,0,0,0-.31-1.31,3.54,3.54,0,0,0-.88-1.07,7.54,7.54,0,0,0-1.38-.84,12.26,12.26,0,0,0-1.78-.66,16.83,16.83,0,0,0-2.13-.47,24.2,24.2,0,0,1-4.35-1.4,10,10,0,0,1-3.1-2A7.8,7.8,0,0,1,132,46.7a9.72,9.72,0,0,1-.6-3.51,7.93,7.93,0,0,1,.89-3.7,8.94,8.94,0,0,1,2.47-3,11.09,11.09,0,0,1,3.64-1.91,13.93,13.93,0,0,1,4.37-.67,18,18,0,0,1,5,.62,10.8,10.8,0,0,1,6.34,4.8l-4.22,4.08a10.56,10.56,0,0,0-2-2.09,8,8,0,0,0-2.35-1.26,8.23,8.23,0,0,0-2.6-.42,7.36,7.36,0,0,0-2.53.38,3.62,3.62,0,0,0-1.66,1.1,2.62,2.62,0,0,0-.6,1.71,2.51,2.51,0,0,0,.4,1.42,3.56,3.56,0,0,0,1.15,1.09,8.85,8.85,0,0,0,1.82.82,20.44,20.44,0,0,0,2.35.62,24.05,24.05,0,0,1,4.4,1.29,13,13,0,0,1,3.34,1.93,7.5,7.5,0,0,1,2.91,6.1A9.29,9.29,0,0,1,153,61.52a9.63,9.63,0,0,1-4.17,3.4A15.32,15.32,0,0,1,142.6,66.09Z"/><path class="cls-1" d="M168.43,66.09a9.11,9.11,0,0,1-5.28-1.6,11,11,0,0,1-3.73-4.35,15,15,0,0,1,0-12.6,10.88,10.88,0,0,1,3.79-4.3,9.79,9.79,0,0,1,5.46-1.55,9.27,9.27,0,0,1,3.18.51,8.26,8.26,0,0,1,2.53,1.39,9.15,9.15,0,0,1,1.84,2,7.84,7.84,0,0,1,1.06,2.49L176,47.89V42.17h6.26V65.65h-6.35V60l1.42-.13a7.54,7.54,0,0,1-1.15,2.35,9,9,0,0,1-2,2,10.23,10.23,0,0,1-2.65,1.37A9.33,9.33,0,0,1,168.43,66.09Zm1.73-5.46a5.44,5.44,0,0,0,5.17-3.22,8.13,8.13,0,0,0,.73-3.57,7.87,7.87,0,0,0-.73-3.5A5.84,5.84,0,0,0,173.27,48a5.58,5.58,0,0,0-3.11-.87,5.34,5.34,0,0,0-3,.87,5.93,5.93,0,0,0-2.07,2.38,7.74,7.74,0,0,0-.75,3.5,8,8,0,0,0,.75,3.57,5.68,5.68,0,0,0,2.07,2.38A5.4,5.4,0,0,0,170.16,60.63Z"/><path class="cls-1" d="M198.74,66.09a11.41,11.41,0,0,1-10.23-6,13.55,13.55,0,0,1,0-12.51,11.38,11.38,0,0,1,10.23-5.94,14.16,14.16,0,0,1,5.77,1.15A9.75,9.75,0,0,1,208.59,46l-3.46,4.17a7.5,7.5,0,0,0-1.55-1.53,8.77,8.77,0,0,0-2-1.09,6.66,6.66,0,0,0-2.24-.4,6,6,0,0,0-3.22.87,6.06,6.06,0,0,0-2.2,2.37,7.37,7.37,0,0,0-.8,3.47,6.89,6.89,0,0,0,.82,3.37,6.31,6.31,0,0,0,2.24,2.4,5.92,5.92,0,0,0,3.2.88,7.3,7.3,0,0,0,2.17-.31,6.54,6.54,0,0,0,1.94-1,9.62,9.62,0,0,0,1.66-1.6l3.41,4.17a10.37,10.37,0,0,1-4.14,3.09A14,14,0,0,1,198.74,66.09Z"/><path class="cls-1" d="M226.12,66.09a10.56,10.56,0,0,1-3-.44,10.78,10.78,0,0,1-2.66-1.22,8.24,8.24,0,0,1-2-1.78,4.8,4.8,0,0,1-1-2.06l1.42-.53-.31,5.5h-5.95V32.81h6.35V47.67l-1.24-.49a5.52,5.52,0,0,1,1-2.06,7.76,7.76,0,0,1,1.91-1.77,9.41,9.41,0,0,1,2.53-1.22,9,9,0,0,1,2.84-.44,9.78,9.78,0,0,1,5.47,1.57,10.79,10.79,0,0,1,3.8,4.32,13.91,13.91,0,0,1,1.37,6.31,14.1,14.1,0,0,1-1.35,6.3,10.65,10.65,0,0,1-3.75,4.33A9.61,9.61,0,0,1,226.12,66.09Zm-1.51-5.37a5.5,5.5,0,0,0,3.08-.86,6,6,0,0,0,2.07-2.4,8,8,0,0,0,.75-3.57,8.16,8.16,0,0,0-.73-3.55,5.59,5.59,0,0,0-2.06-2.4,6.11,6.11,0,0,0-6.22,0,5.59,5.59,0,0,0-2.06,2.4,9,9,0,0,0,0,7.12,5.83,5.83,0,0,0,2.06,2.4A5.63,5.63,0,0,0,224.61,60.72Z"/><path class="cls-1" d="M252.52,66.09a13.76,13.76,0,0,1-6.68-1.55,11.25,11.25,0,0,1-4.44-4.26,12.26,12.26,0,0,1-1.57-6.22,13.45,13.45,0,0,1,.89-5,11.89,11.89,0,0,1,2.48-3.93,11.25,11.25,0,0,1,3.8-2.57,12.25,12.25,0,0,1,4.77-.91,10.91,10.91,0,0,1,4.44.89A10.55,10.55,0,0,1,259.73,45,11,11,0,0,1,262,48.72a12,12,0,0,1,.71,4.63l-.05,2H243.82l-1-3.87h14.69l-.71.8v-1a4.24,4.24,0,0,0-.77-2.16,5,5,0,0,0-1.76-1.5,5.08,5.08,0,0,0-2.39-.56,6.72,6.72,0,0,0-3.31.76A4.91,4.91,0,0,0,246.49,50a8,8,0,0,0-.71,3.56,7.1,7.1,0,0,0,.91,3.68,6.2,6.2,0,0,0,2.57,2.42,8.38,8.38,0,0,0,3.93.86,8.1,8.1,0,0,0,2.84-.48,10.28,10.28,0,0,0,2.75-1.69l3,4.22A12.76,12.76,0,0,1,259,64.52a15.2,15.2,0,0,1-3.2,1.17A13.43,13.43,0,0,1,252.52,66.09Zm-4.12-26.8-1.91-2.93,7.41-6.08,3.15,4.35Z"/><path class="cls-1" d="M139,105.42V80.35H130v-6h25v6h-9.32v25.07Z"/><path class="cls-1" d="M156.93,105.42V81.94H163l.22,7.54-1.06-1.55a9.47,9.47,0,0,1,1.73-3.31,8.94,8.94,0,0,1,2.82-2.32,7.15,7.15,0,0,1,3.39-.84,8.26,8.26,0,0,1,2.67.44l-1.69,6.92a6,6,0,0,0-1.26-.47,6.58,6.58,0,0,0-1.58-.2,5.17,5.17,0,0,0-2,.38,4.63,4.63,0,0,0-1.57,1.06,5.11,5.11,0,0,0-1,1.63,5.22,5.22,0,0,0-.38,2v12.16Z"/><path class="cls-1" d="M184.18,105.86a9.14,9.14,0,0,1-5.28-1.6,11,11,0,0,1-3.73-4.35,15,15,0,0,1,0-12.6A10.83,10.83,0,0,1,179,83a9.74,9.74,0,0,1,5.46-1.55,9.25,9.25,0,0,1,3.17.51,8.26,8.26,0,0,1,2.53,1.39,8.91,8.91,0,0,1,1.84,2,7.86,7.86,0,0,1,1.07,2.49l-1.34-.23V81.94H198v23.48h-6.34V99.78l1.42-.13A7.47,7.47,0,0,1,191.9,102a9,9,0,0,1-2,2,10.32,10.32,0,0,1-2.64,1.37A9.44,9.44,0,0,1,184.18,105.86Zm1.73-5.46a5.64,5.64,0,0,0,3.11-.84,5.56,5.56,0,0,0,2.06-2.37,8.2,8.2,0,0,0,.73-3.58,7.91,7.91,0,0,0-.73-3.5A5.76,5.76,0,0,0,189,87.73a5.57,5.57,0,0,0-3.11-.86,5.36,5.36,0,0,0-3,.86,5.91,5.91,0,0,0-2.06,2.38,7.64,7.64,0,0,0-.76,3.5,7.93,7.93,0,0,0,.76,3.58,5.69,5.69,0,0,0,2.06,2.37A5.43,5.43,0,0,0,185.91,100.4Z"/><path class="cls-1" d="M204.28,105.42V81.94h6l.17,4.79-1.24.53a7.05,7.05,0,0,1,1.76-2.9,9.78,9.78,0,0,1,3-2.11,9,9,0,0,1,3.72-.79,8.59,8.59,0,0,1,4.46,1.06,6.59,6.59,0,0,1,2.71,3.21,13.63,13.63,0,0,1,.91,5.31v14.38h-6.3V91.53a7.1,7.1,0,0,0-.44-2.67,3,3,0,0,0-1.36-1.55,4.43,4.43,0,0,0-2.24-.44,5.7,5.7,0,0,0-2,.33,4.39,4.39,0,0,0-1.56,1,4.88,4.88,0,0,0-1,1.42,4.05,4.05,0,0,0-.38,1.73v14.12h-6.3Z"/><path class="cls-1" d="M239.78,105.86a14.82,14.82,0,0,1-5.83-1.08,10.53,10.53,0,0,1-4.11-3l3.95-3.37a7.77,7.77,0,0,0,3,2.1,9.38,9.38,0,0,0,3.37.65,4.24,4.24,0,0,0,1.22-.16,3,3,0,0,0,1-.44,1.94,1.94,0,0,0,.6-.71,2.13,2.13,0,0,0,.2-.91,1.71,1.71,0,0,0-.8-1.51,8.12,8.12,0,0,0-1.38-.6c-.62-.22-1.42-.47-2.39-.73a19.33,19.33,0,0,1-3.84-1.36A8.49,8.49,0,0,1,232.24,93,6.9,6.9,0,0,1,231,91a6.64,6.64,0,0,1-.42-2.42,6.08,6.08,0,0,1,.71-2.91,6.75,6.75,0,0,1,2-2.23A9.54,9.54,0,0,1,236.19,82a11.27,11.27,0,0,1,3.46-.51,14,14,0,0,1,3.55.44,13.57,13.57,0,0,1,3.22,1.26,11.87,11.87,0,0,1,2.6,1.93l-3.38,3.73a12,12,0,0,0-1.79-1.38,9.71,9.71,0,0,0-2.07-1,6.06,6.06,0,0,0-1.91-.36,6.19,6.19,0,0,0-1.35.13,2.78,2.78,0,0,0-1,.43,1.84,1.84,0,0,0-.6.68,2,2,0,0,0-.2.89,1.8,1.8,0,0,0,.25.93,2.14,2.14,0,0,0,.68.76,10.71,10.71,0,0,0,1.45.62c.63.24,1.49.5,2.59.8a21.41,21.41,0,0,1,3.62,1.29,8.11,8.11,0,0,1,2.38,1.64,5.08,5.08,0,0,1,1.1,1.82,6.74,6.74,0,0,1,.36,2.26,6.43,6.43,0,0,1-1.22,3.86,8.3,8.3,0,0,1-3.35,2.67A11.4,11.4,0,0,1,239.78,105.86Z"/><path class="cls-1" d="M251.94,87.84V82.52h14.91v5.32Zm3.51,17.58V80.3a8.05,8.05,0,0,1,1-4,7.24,7.24,0,0,1,2.69-2.8,7.67,7.67,0,0,1,4-1,8.68,8.68,0,0,1,2.93.51,7.84,7.84,0,0,1,2.35,1.36l-1.87,4.66a7.19,7.19,0,0,0-1.17-.6,2.8,2.8,0,0,0-1.09-.24,3,3,0,0,0-1.4.28,1.83,1.83,0,0,0-.82.85,3.15,3.15,0,0,0-.27,1.4v24.67h-6.34Z"/><path class="cls-1" d="M281.32,105.86a13.76,13.76,0,0,1-6.68-1.55,11.22,11.22,0,0,1-4.43-4.26,12.14,12.14,0,0,1-1.58-6.22,13.45,13.45,0,0,1,.89-5A11.89,11.89,0,0,1,272,84.89a11.25,11.25,0,0,1,3.8-2.57,12.25,12.25,0,0,1,4.77-.91,11.07,11.07,0,0,1,4.44.89,10.55,10.55,0,0,1,3.52,2.46,10.67,10.67,0,0,1,2.29,3.73,12,12,0,0,1,.71,4.63l0,2H272.62l-1-3.86h14.7l-.71.79V91a4.35,4.35,0,0,0-.78-2.16,5,5,0,0,0-1.75-1.5,5.12,5.12,0,0,0-2.4-.56,6.72,6.72,0,0,0-3.31.76,4.91,4.91,0,0,0-2.06,2.21,8,8,0,0,0-.71,3.56,7.1,7.1,0,0,0,.91,3.68,6.2,6.2,0,0,0,2.57,2.42,8.38,8.38,0,0,0,3.93.86,8.1,8.1,0,0,0,2.84-.48,10.13,10.13,0,0,0,2.75-1.69l3,4.22a13.06,13.06,0,0,1-2.84,1.93,15.2,15.2,0,0,1-3.2,1.17A13.43,13.43,0,0,1,281.32,105.86Z"/><path class="cls-1" d="M296.19,105.42V81.94h6.08l.22,7.54-1.06-1.55a9.47,9.47,0,0,1,1.73-3.31A8.83,8.83,0,0,1,306,82.3a7.09,7.09,0,0,1,3.39-.84,8,8,0,0,1,1.47.13,7.5,7.5,0,0,1,1.19.31l-1.68,6.92a5.88,5.88,0,0,0-1.27-.47,6.44,6.44,0,0,0-1.57-.2,5.17,5.17,0,0,0-2,.38A4.63,4.63,0,0,0,304,89.59a5,5,0,0,0-1,1.63,5.4,5.4,0,0,0-.37,2v12.16Z"/><path class="cls-1" d="M323.53,105.86a14.84,14.84,0,0,1-5.84-1.08,10.53,10.53,0,0,1-4.11-3l3.95-3.37a7.77,7.77,0,0,0,3,2.1,9.38,9.38,0,0,0,3.37.65,4.36,4.36,0,0,0,1.23-.16,3.08,3.08,0,0,0,1-.44,1.85,1.85,0,0,0,.6-.71,2.13,2.13,0,0,0,.2-.91,1.71,1.71,0,0,0-.8-1.51,8.12,8.12,0,0,0-1.38-.6c-.62-.22-1.42-.47-2.39-.73a19.33,19.33,0,0,1-3.84-1.36A8.49,8.49,0,0,1,316,93a6.9,6.9,0,0,1-1.22-2,6.64,6.64,0,0,1-.42-2.42,6.08,6.08,0,0,1,.71-2.91,6.75,6.75,0,0,1,2-2.23A9.54,9.54,0,0,1,319.93,82a11.27,11.27,0,0,1,3.46-.51,14,14,0,0,1,3.55.44,13.57,13.57,0,0,1,3.22,1.26,11.87,11.87,0,0,1,2.6,1.93l-3.38,3.73a12,12,0,0,0-1.79-1.38,9.71,9.71,0,0,0-2.07-1,6.06,6.06,0,0,0-1.91-.36,6.19,6.19,0,0,0-1.35.13,2.78,2.78,0,0,0-1,.43,1.83,1.83,0,0,0-.8,1.57,1.8,1.8,0,0,0,.25.93,2.14,2.14,0,0,0,.68.76,10.71,10.71,0,0,0,1.45.62c.63.24,1.5.5,2.59.8a21.41,21.41,0,0,1,3.62,1.29,8.11,8.11,0,0,1,2.38,1.64,5.1,5.1,0,0,1,1.11,1.82,7,7,0,0,1,.35,2.26,6.43,6.43,0,0,1-1.22,3.86,8.3,8.3,0,0,1-3.35,2.67A11.39,11.39,0,0,1,323.53,105.86Z"/></g></g></svg>